<?xml version="1.0" encoding="utf-8"?>
<!-- Generator: Adobe Illustrator 23.0.3, SVG Export Plug-In . SVG Version: 6.00 Build 0)  -->
<svg version="1.1" id="Layer_2" xmlns="http://www.w3.org/2000/svg" xmlns:xlink="http://www.w3.org/1999/xlink" x="0px" y="0px"
	 viewBox="0 0 561 240" style="enable-background:new 0 0 561 240;" xml:space="preserve">
<style type="text/css">
	.st0{fill:#CFC3B3;}
	.st1{fill:#2E303C;}
	.st2{fill:#ED2A28;}
	.st3{fill:#CBC4B4;}
	.st4{fill:#07080A;}
	.st5{fill:#919584;}
	.st6{fill:#080808;}
</style>
<g>
	<rect y="0" class="st0" width="561" height="240"/>
	<rect x="15" y="37" class="st1" width="530" height="188"/>
	<path class="st0" d="M420.28,200h-48.57c-3.71,0-6.72-3.01-6.72-6.72v-48.57c0-3.71,3.01-6.72,6.72-6.72h48.57
		c3.71,0,6.72,3.01,6.72,6.72v48.57C427,196.99,423.99,200,420.28,200z"/>
	<path class="st0" d="M493.28,200h-48.57c-3.71,0-6.72-3.01-6.72-6.72v-48.57c0-3.71,3.01-6.72,6.72-6.72h48.57
		c3.71,0,6.72,3.01,6.72,6.72v48.57C500,196.99,496.99,200,493.28,200z"/>
	<circle class="st2" cx="395.5" cy="169.5" r="24.5"/>
	<circle class="st2" cx="468.5" cy="169.5" r="24.5"/>
	<g>
		<path class="st3" d="M144.94,117H122V94.06c0-5-4.05-9.06-9.06-9.06H83.06c-5,0-9.06,4.05-9.06,9.06V117H51.06
			c-5,0-9.06,4.05-9.06,9.06v29.89c0,5,4.05,9.06,9.06,9.06H74v22.94c0,5,4.05,9.06,9.06,9.06h29.89c5,0,9.06-4.05,9.06-9.06V165
			h22.94c5,0,9.06-4.05,9.06-9.06v-29.89C154,121.05,149.95,117,144.94,117z"/>
		<path class="st4" d="M144.85,122H117V94.15c0-2.84-2.3-5.15-5.15-5.15H84.15C81.3,89,79,91.3,79,94.15V122H51.15
			c-2.84,0-5.15,2.3-5.15,5.15v27.71c0,2.84,2.3,5.15,5.15,5.15H79v27.85c0,2.84,2.3,5.15,5.15,5.15h27.71
			c2.84,0,5.15-2.3,5.15-5.15V160h27.85c2.84,0,5.15-2.3,5.15-5.15v-27.71C150,124.3,147.7,122,144.85,122z"/>
	</g>
	<path class="st5" d="M334.33,97H188.67c-3.68,0-6.67-2.99-6.67-6.67V77.67c0-3.68,2.99-6.67,6.67-6.67h145.66
		c3.68,0,6.67,2.99,6.67,6.67v12.66C341,94.01,338.01,97,334.33,97z"/>
	<path class="st5" d="M337.83,36.99c1.9,1.18,3.17,3.28,3.17,5.68v12.66c0,3.68-2.99,6.67-6.67,6.67H188.67
		c-3.68,0-6.67-2.99-6.67-6.67V42.67c0-2.4,1.26-4.5,3.16-5.67"/>
	<path class="st5" d="M334.33,132H188.67c-3.68,0-6.67-2.99-6.67-6.67v-12.66c0-3.68,2.99-6.67,6.67-6.67h145.66
		c3.68,0,6.67,2.99,6.67,6.67v12.66C341,129.01,338.01,132,334.33,132z"/>
	<path class="st5" d="M182,225v-9.33c0-3.68,2.99-6.67,6.67-6.67h145.66c3.68,0,6.67,2.99,6.67,6.67V225"/>
	<path class="st0" d="M334.01,197H188.99c-2.75,0-4.99-2.23-4.99-4.99v-44.03c0-2.75,2.23-4.99,4.99-4.99h145.03
		c2.75,0,4.99,2.23,4.99,4.99v44.03C339,194.77,336.77,197,334.01,197z"/>
	<path class="st6" d="M236.5,178h-26c-4.69,0-8.5-3.81-8.5-8.5v0c0-4.69,3.81-8.5,8.5-8.5h26c4.69,0,8.5,3.81,8.5,8.5v0
		C245,174.19,241.19,178,236.5,178z"/>
	<path class="st6" d="M305.5,178h-26c-4.69,0-8.5-3.81-8.5-8.5v0c0-4.69,3.81-8.5,8.5-8.5h26c4.69,0,8.5,3.81,8.5,8.5v0
		C314,174.19,310.19,178,305.5,178z"/>
	<g>
		<path class="st2" d="M458.49,74.11l1.52,1.52v12.58h-4.76v-5.05h-1.06v5.05h-4.76V75.63l1.52-1.52H458.49z M455.25,78.12h-1.06
			v2.51l1.06-1.05V78.12z"/>
		<path class="st2" d="M471.65,74.11v4.01h-2.9v10.09h-4.77V78.12h-2.9v-4.01H471.65z"/>
		<path class="st2" d="M483.28,74.11v4.01h-2.9v10.09h-4.77V78.12h-2.9v-4.01H483.28z"/>
	</g>
	<g>
		<path class="st2" d="M428.01,211.64l-1.52,1.52l1.52,1.51v4.02l-1.52,1.52h-9.05v-14.1h9.05l1.52,1.52V211.64z M423.25,210.12
			h-1.06v2.1l1.06-1.05V210.12z M423.25,214.56h-1.06v2.71l1.06-1.05V214.56z"/>
	</g>
	<g>
		<path class="st2" d="M497.49,206.11l1.52,1.52v12.58h-4.76v-5.05h-1.06v5.05h-4.76v-12.58l1.52-1.52H497.49z M494.25,210.12h-1.06
			v2.51l1.06-1.05V210.12z"/>
	</g>
</g>
</svg>
